# xmcd
#
# Track frame offsets:
#	150
#	14068
#	26395
#	37981
#	54282
#	76130
#	91401
#	105699
#	118876
#	136134
#	147583
#	159869
#	175147
#	191516
#	205964
#	227647
#	239753
#	257217
#	270539
#	282422
#	309950
#
# Disc length: 4577 seconds
#
# Revision: 0
# Processed by: cddbd v1.5.1PL0 Copyright (c) Steve Scherf et al.
# Submitted via: dBpowerAMP V4.0
#
DISCID=2211df15
DTITLE=Various Artist - Country Number Ones
DYEAR=2004
DGENRE=Country
TTITLE0=Glen Campbell - Wichita Lineman
TTITLE1=Merle Haggard - Okie From Muskogee
TTITLE2=George Jones - She Thinks I Still Care
TTITLE3=Kenny Rogers - Lucille
TTITLE4=Deana Carter - Strawberry Wine
TTITLE5=Tanya Tucker - If it don't come easy
TTITLE6=Glen Campbell - Rhinestone Cowboy
TTITLE7=Crystal Gayle - Talking in your sleep
TTITLE8=Don Williams - Heartbeat In the darkness
TTITLE9=Crystal Gayle - Dont it make my brown eyes blue
TTITLE10=Tanya Tucker - Strong enough to bend
TTITLE11=Deana Carter - We Danced Away
TTITLE12=Eddie Rabbit - On Second Thought
TTITLE13=Tanya Tucker - Just Another Love
TTITLE14=Dan Seals - Everything that glitters (is not gold)
TTITLE15=Glen Campbell - Galveston
TTITLE16=Kenny Rogers - Lady
TTITLE17=Crystal Gayle - Why have you left the one you left me for
TTITLE18=Sonny James - Only the lonely
TTITLE19=Billy Jo Spears - Blanket On the ground
TTITLE20=DATA
EXTD=
EXTT0=
EXTT1=
EXTT2=
EXTT3=
EXTT4=
EXTT5=
EXTT6=
EXTT7=
EXTT8=
EXTT9=
EXTT10=
EXTT11=
EXTT12=
EXTT13=
EXTT14=
EXTT15=
EXTT16=
EXTT17=
EXTT18=
EXTT19=
EXTT20=
PLAYORDER=
